<?xml version="1.0" encoding="utf-8"?>
<!-- Generator: Adobe Illustrator 27.2.0, SVG Export Plug-In . SVG Version: 6.00 Build 0)  -->
<svg version="1.1" id="Capa_1" xmlns="http://www.w3.org/2000/svg" xmlns:xlink="http://www.w3.org/1999/xlink" x="0px" y="0px"
	 viewBox="0 0 512 512" style="enable-background:new 0 0 512 512;" xml:space="preserve">
<style type="text/css">
	.st0{fill:#FFFFFF;}
</style>
<path class="st0" d="M256.1,124.8c-72.6,0-131.2,58.6-131.2,131.2s58.6,131.2,131.2,131.2S387.3,328.6,387.3,256
	S328.7,124.8,256.1,124.8z M256.1,341.3c-46.9,0-85.3-38.3-85.3-85.3s38.3-85.3,85.3-85.3s85.3,38.3,85.3,85.3
	S303,341.3,256.1,341.3L256.1,341.3z M423.2,119.4c0,17-13.7,30.6-30.6,30.6c-17,0-30.6-13.7-30.6-30.6s13.7-30.6,30.6-30.6
	C409.5,88.8,423.2,102.5,423.2,119.4z M510.2,150.5c-1.9-41-11.3-77.3-41.3-107.2C438.9,13.3,402.6,4,361.6,1.9
	c-42.3-2.4-168.9-2.4-211.2,0C109.5,3.8,73.2,13.2,43.2,43.1S3.9,109.4,1.8,150.4c-2.4,42.3-2.4,168.9,0,211.2
	c1.9,41,11.3,77.3,41.3,107.2s66.2,39.3,107.2,41.3c42.3,2.4,168.9,2.4,211.2,0c41-1.9,77.3-11.3,107.2-41.3
	c29.9-29.9,39.3-66.2,41.3-107.2C512.5,319.3,512.5,192.7,510.2,150.5L510.2,150.5z M455.6,406.9c-8.9,22.4-26.2,39.6-48.6,48.6
	c-33.7,13.4-113.6,10.3-150.9,10.3s-117.3,3-150.9-10.3c-22.4-8.9-39.6-26.2-48.6-48.6C43.2,373.2,46.3,293.2,46.3,256
	s-3-117.3,10.3-150.9c8.9-22.4,26.2-39.6,48.6-48.6c33.7-13.4,113.6-10.3,150.9-10.3s117.3-3,150.9,10.3
	c22.4,8.9,39.6,26.2,48.6,48.6c13.4,33.7,10.3,113.6,10.3,150.9S468.9,373.3,455.6,406.9z"/>
</svg>
